# xmcd
#
# Track frame offsets:
#	150
#	15375
#	33331
#	52024
#	70292
#	87771
#	104312
#	120560
#	136127
#	151352
#	169308
#	188001
#	206269
#	223748
#	240289
#	256537
#	283354
#
# Disc length: 4118 seconds
#
# Revision: 1
# Processed by: cddbd v1.5.2PL0 Copyright (c) Steve Scherf et al.
# Submitted via: audiograbber 1.83.01
#
DISCID=e3101411
DTITLE=Best Of Fall 2007 Country Vol 1 - ASK82004
DYEAR=2007
DGENRE=Karaoke
TTITLE0=Keith, Toby - High Maintenance Woman 
TTITLE1=Strait, George - How 'Bout Them Cowgirls
TTITLE2=Urban, Keith - I Told You So
TTITLE3=Pickler, Kellie - I Wonder
TTITLE4=Carroll, John Michael - Livin' Our Love Song
TTITLE5=Big and Rich - Lost In This Moment
TTITLE6=Chesney, Kenny - Never Wanted Nothing More
TTITLE7=Atkins, Rodney - These Are My People
TTITLE8=Keith, Toby - High Maintenance Woman 
TTITLE9=Strait, George - How 'Bout Them Cowgirls
TTITLE10=Urban, Keith - I Told You So
TTITLE11=Pickler, Kellie - I Wonder
TTITLE12=Carroll, John Michael - Livin' Our Love Song
TTITLE13=Big and Rich - Lost In This Moment
TTITLE14=Chesney, Kenny - Never Wanted Nothing More
TTITLE15=Atkins, Rodney - These Are My People
TTITLE16=Data Track - Data Track
EXTD=
EXTT0=
EXTT1=
EXTT2=
EXTT3=
EXTT4=
EXTT5=
EXTT6=
EXTT7=
EXTT8=
EXTT9=
EXTT10=
EXTT11=
EXTT12=
EXTT13=
EXTT14=
EXTT15=
EXTT16=
PLAYORDER=
